<!-- This file is generated automatically - DO NOT EDIT -->
<svg xmlns="http://www.w3.org/2000/svg" fill="none" viewBox="0 0 44 44">
    <g filter="url(#csms__540773506____filter0_d)">
        <path fill="url(#csms__540773506____paint0_linear)" d="M30.684 6a10.778 10.778 0 0 0-4.86 1.157A10.825 10.825 0 0 0 22 10.384a10.825 10.825 0 0 0-3.824-3.227A10.778 10.778 0 0 0 13.316 6C7.351 6 2.5 10.872 2.5 16.86 2.5 26.68 15.559 39 22 39c6.441 0 19.5-12.321 19.5-22.14C41.5 10.873 36.648 6 30.684 6"/>
    </g>
    <defs>
        <filter id="csms__540773506____filter0_d" width="41.54" height="35.54" x="0.595" y="5.365" color-interpolation-filters="sRGB" filterUnits="userSpaceOnUse">
            <feFlood flood-opacity="0" result="BackgroundImageFix"/>
            <feColorMatrix in="SourceAlpha" values="0 0 0 0 0 0 0 0 0 0 0 0 0 0 0 0 0 0 127 0"/>
            <feOffset dx="-0.635" dy="0.635"/>
            <feGaussianBlur stdDeviation="0.635"/>
            <feColorMatrix values="0 0 0 0 0 0 0 0 0 0 0 0 0 0 0 0 0 0 0.1 0"/>
            <feBlend in2="BackgroundImageFix" result="effect1_dropShadow"/>
            <feBlend in="SourceGraphic" in2="effect1_dropShadow" result="shape"/>
        </filter>
        <linearGradient id="csms__540773506____paint0_linear" x1="2.5" x2="41.5" y1="22.5" y2="22.5" gradientUnits="userSpaceOnUse">
            <stop stop-color="#E60E31"/>
            <stop offset="1" stop-color="#FB6770"/>
        </linearGradient>
    </defs>
</svg>
